<?xml version="1.0" encoding="utf-8"?>
<!-- Generator: Adobe Illustrator 16.0.3, SVG Export Plug-In . SVG Version: 6.00 Build 0)  -->
<!DOCTYPE svg PUBLIC "-//W3C//DTD SVG 1.1//EN" "http://www.w3.org/Graphics/SVG/1.1/DTD/svg11.dtd">
<svg version="1.1" id="Layer_1" xmlns="http://www.w3.org/2000/svg" xmlns:xlink="http://www.w3.org/1999/xlink" x="0px" y="0px"
	 width="640px" height="480px" viewBox="0 0 640 480" enable-background="new 0 0 640 480" xml:space="preserve">
<g>
	<g>
		<g id="XMLID_1_">
			<g>
				<path d="M397.989,187.018c0.04,3.28-0.149,5.79-1.39,8.06c-1.891,3.44-5.801,3.62-7.551,0.15c-2.391-4.73-2.09-9.73-0.319-14.61
					c0.68-1.87,2.37-2.63,4.38-2.6c1.93,0.04,3.04,1.18,3.82,2.78C398.01,183.008,397.88,185.408,397.989,187.018z"/>
				<path d="M326.631,177.948c2.27,1.41,2.77,3.55,2.438,6.21c-0.511,0.15-1.021,0.25-1.53,0.32c-1.658,0.229-3.3,0.14-4.988,0.11
					c-0.65-0.021-1.301-0.021-1.972,0.01c-0.528-2.76,0.302-4.78,2.19-6.38C323.93,177.238,325.329,177.138,326.631,177.948z"/>
				<path d="M327.539,184.478c-1.658,0.24-3.3,0.14-4.988,0.11C324.239,184.618,325.881,184.708,327.539,184.478z"/>
				<path d="M283.649,180.828c0.98,2.061,1.15,4.301,1.13,6.54c-0.04,2.681-0.24,5.351-1.77,7.641c-1.46,2.17-3.45,3.01-6.14,2.26
					c-2.52-0.71-3.17-2.28-3.07-4.67c0.13-3.2,0.14-6.42,0.02-9.62c-0.03-0.62,0-1.19,0.08-1.7c0.05-0.25,0.1-0.49,0.18-0.71
					c0.07-0.229,0.16-0.45,0.28-0.649c0.11-0.2,0.23-0.381,0.39-0.551c0.08-0.09,0.16-0.17,0.25-0.25
					c0.09-0.08,0.18-0.149,0.29-0.229c0.2-0.13,0.42-0.25,0.66-0.351c0.12-0.05,0.25-0.1,0.39-0.14c0.14-0.05,0.29-0.09,0.44-0.12
					c0.15-0.04,0.31-0.07,0.47-0.09c1.63-0.24,3.17-0.23,4.42,0.45c0.3,0.17,0.58,0.37,0.84,0.6c0.08,0.08,0.17,0.16,0.25,0.26
					c0.25,0.271,0.48,0.58,0.69,0.95C283.519,180.568,283.589,180.698,283.649,180.828z"/>
				<path d="M283.449,180.448c-0.21-0.37-0.44-0.68-0.69-0.95C283.01,179.758,283.24,180.078,283.449,180.448z"/>
				<path d="M281.669,178.638c0.3,0.16,0.58,0.359,0.84,0.6C282.249,179.008,281.969,178.808,281.669,178.638z"/>
				<path d="M276.78,178.278c-0.15,0.03-0.3,0.07-0.44,0.12C276.479,178.348,276.619,178.308,276.78,178.278z"/>
				<path d="M275.289,178.888c0.19-0.13,0.41-0.25,0.66-0.351C275.709,178.638,275.49,178.758,275.289,178.888z"/>
				<path d="M274.999,179.118c-0.09,0.08-0.17,0.16-0.25,0.25C274.819,179.278,274.899,179.198,274.999,179.118z"/>
				<path d="M274.359,179.918c-0.12,0.199-0.21,0.42-0.28,0.649C274.149,180.338,274.24,180.118,274.359,179.918z"/>
				<path d="M273.899,181.278c0.04-0.25,0.1-0.49,0.18-0.71C273.999,180.788,273.949,181.028,273.899,181.278z"/>
				<path d="M432,253.268c-9.399,2.85-17.319-0.15-24.811-6.6c0.609,7.39,1.96,14.1,6.271,20.158c0.5,0.7,1.029,1.392,1.609,2.07
					c0.391,0.45,0.79,0.9,1.22,1.35c0.211,0.222,0.432,0.44,0.65,0.66c-4.03-0.43-6.55-2.27-8.86-4.13
					c-0.76-0.62-1.5-1.24-2.27-1.81c-3.25-2.4-5.141-6.11-8.28-9.7c-0.1,0.92-0.25,1.83-0.41,2.72c-0.17,0.892-0.35,1.76-0.51,2.61
					v0.01c-0.09,0.43-0.17,0.85-0.24,1.271v0.01c-0.08,0.42-0.14,0.84-0.199,1.26c-0.381,2.9-0.271,5.68,1.54,8.46
					c0.261,0.4,0.521,0.8,0.8,1.21c0.181,0.271,0.359,0.53,0.561,0.79c0.189,0.26,0.391,0.51,0.601,0.74
					c1.21,1.38,2.71,2.29,4.859,1.64c3.09-0.93,2.641-4.108,2.4-7.67c3.188,2.47,4.358,4.86,3.829,8.15
					c-1.13,6.95-8.119,11.54-16.479,10.87c-2.3-0.19-4.79-2.03-6.859-0.352c-3,2.431-5.979,5.04-7.67,8.69
					c-0.279,0.608-0.311,1.39-1.54,1.52c-0.319-0.56-0.641-1.13-0.979-1.7c-0.34-0.568-0.681-1.14-1.05-1.698
					c-0.19-0.29-0.37-0.562-0.57-0.842c-0.391-0.55-0.811-1.09-1.25-1.6c-0.229-0.26-0.46-0.51-0.7-0.76
					c-1.77-1.83-3.18-2.4-4.87-0.62c-0.239,0.24-0.489,0.53-0.739,0.88c-0.141,0.19-0.271,0.38-0.399,0.57
					c-2.641,3.8-3.59,7.108-2.62,10.92c0.13,0.489,0.28,0.979,0.471,1.489c0.189,0.511,0.42,1.021,0.67,1.551
					c0.25,0.529,0.54,1.068,0.859,1.63c0.32,0.55,0.67,1.12,1.061,1.71c0.779,1.17,1.689,2.41,2.739,3.729
					c-4.01-0.97-5.64-4.21-9.119-5.869c2.159,6.029,5.761,10.08,10.601,13.261c-8.96-1.28-13.64-7.931-18.72-15.82
					c0.049,3.36-0.182,6.55-0.67,9.58c-0.132,0.79-0.281,1.57-0.44,2.35c-0.16,0.771-0.351,1.53-0.55,2.28
					c-0.4,1.5-0.881,2.96-1.42,4.38c-0.271,0.71-0.562,1.42-0.871,2.11c-0.93,2.08-2.01,4.07-3.239,5.99
					c-1.851,2.869-4.06,5.58-6.601,8.14c-2.01,2.03-3.26,2.36-7,2.74c2.49-3.19,6.011-5.261,7.391-8.99
					c1.32-3.59,1.63-7.17-0.27-11.74c-1.621,3.4-2.802,6-4.092,8.551c-5.908,11.649-14.869,19.409-28.119,21.271
					c-8.48,1.18-16.101-0.93-22.15-7.29c-3.35-3.521-4.82-7.82-4.11-12.68c0.56-3.841,2.35-6.762,6.49-7.66
					c0.22,0.33,0.35,0.63,0.4,0.91c0.17,1.04-0.69,1.8-1.01,2.62c-1.01,2.568-0.36,4.64,1.68,6.329
					c2.01,1.649,4.16,1.369,6.24,0.171c1.89-1.102,3.109-2.842,3.739-4.882c2.99-9.648,3.63-19.42,1.311-29.31
					c-0.04-0.17-0.08-0.33-0.141-0.5c-0.149-0.49-0.37-0.979-0.6-1.45c-0.17-0.359-0.5-0.64-0.89-1.12
					c-4.91,4.011-7.07,8.86-4.761,16.091c-4.83-2.881-5.99-7.369-8.91-11.271c-2.44,7.729,1.22,12.81,5.02,18.09
					c-5.72-3.58-9.04-9.39-12.98-15.109c-13.16,14.221-16.6,16.369-24.7,15.091c3.38-1.722,6.28-3.61,8.2-6.54
					c0.64-0.98,1.17-2.08,1.57-3.32c-5.02,1.04-9.96,3.58-14.19-0.96c-1.31-1.41-1.28-3.03,0.3-4.42
					c2.88,4.439,4.78,4.819,9.18,1.88c7.03-4.68,10.93-14.28,8.29-20.42c-0.38-0.87-0.64-1.86-1.71-2.22
					c-0.47,0.52-0.36,1.13-0.26,1.76c0.09,0.54,0.18,1.09-0.08,1.63c-0.12,0.271-0.33,0.53-0.68,0.79
					c-1.28-0.99-2.45-2.03-3.52-3.12c-0.54-0.55-1.05-1.1-1.54-1.67c-0.73-0.85-1.41-1.729-2.04-2.64c-0.63-0.9-1.2-1.83-1.74-2.78
					c-0.35-0.63-0.69-1.28-1-1.93c-2.83-5.9-4.09-12.61-4.52-19.852c-4.77,3-6.75,6.98-7.06,11.73c-0.1,1.51,0.21,2.84,0.74,4.068
					c0.11,0.24,0.22,0.472,0.34,0.7c0.25,0.471,0.52,0.92,0.8,1.37c0.14,0.22,0.29,0.44,0.44,0.66c1.14,1.649,2.47,3.229,3.42,5.01
					c-4.97-1.71-8.43-5.43-12.19-8.81c0.04,2.05,0.21,3.46,1.32,5.279c0.17,0.279,0.36,0.569,0.58,0.869
					c0.21,0.312,0.46,0.62,0.73,0.96c0.54,0.671,1.19,1.4,1.98,2.24c0.59,0.62,1.26,1.311,2.01,2.061c2,2,4.61,4.489,8.02,7.71
					c-9.62,0.529-16.89-9.869-22.8-32.96c-4.6,6.381-9.61,11.921-16.93,14.841c-0.49,0.188-0.98,0.38-1.49,0.54
					c4.3-4.69,6.6-10.07,7.91-16c0.24-1.08,0.44-2.182,0.62-3.301c0.18-1.119,0.33-2.25,0.45-3.409c0.07-0.57,0.13-1.15,0.18-1.74
					c-7.38,6.38-15.25,9.5-24.65,6.87c7.29-1.19,13.57-3.95,18.58-9.66c4.46-5.08,6.07-10.379,4.93-17.2
					c-2.55-15.24-5.72-30.44-5.58-46.01c0.03-3.91,0.16-7.811,0.49-11.69c0.24-2.77,0.58-5.52,1.06-8.27
					c0.39-2.2,0.86-4.391,1.45-6.561c0.16-0.59,0.29-1.18,0.39-1.77v-0.01c0.16-0.881,0.26-1.771,0.32-2.67c0,0,0,0,0-0.011
					c0.27-3.91-0.2-7.88-0.1-11.8c0.09-3.979,0.08-7.96,0.06-11.939c-0.01-1.601-0.02-3.211-0.03-4.811
					c-0.01-2.58,1.1-3.71,3.75-3.88c8.66-0.55,13.7,6.47,10.14,14.33c-0.14,0.31-0.31,0.59-0.46,0.87
					c-0.2,0.359-0.37,0.71-0.44,1.109c-0.01,0.021-0.01,0.051-0.01,0.08c-0.08,0.471,0,1,0.37,1.66c3.63,6.521,3.5,9.04-0.24,15.91
					h0.01c2.33,0,4.8,0.65,6.56-0.18c1.8-0.851,3.77-2.181,5.77-2.351c0-8.88,0-17.63,0-26.35c0-0.05-0.02-0.11-0.06-0.17
					c-0.02-0.03-0.05-0.061-0.08-0.08c-0.02-0.04-0.05-0.061-0.08-0.08c-0.04-0.03-0.07-0.05-0.1-0.08
					c-0.09-0.08-0.2-0.13-0.28-0.17c-0.09-0.04-0.18-0.07-0.28-0.1c-0.37-0.11-0.8-0.15-1.22-0.181c-0.32-0.029-0.64-0.05-0.93-0.1
					c-0.1-0.01-0.21-0.04-0.31-0.061c-0.69-0.189-1.19-0.619-1.11-1.739c0.11-1.58,1.01-2.04,2.11-2.181
					c0.81-0.1,1.72-0.02,2.49-0.069c0.69-0.051,1.37-0.051,1.99,0.05c0.71,0.12,1.35,0.37,1.82,0.819c0.08,0.08,0.16,0.16,0.23,0.25
					c0.2,0.261,0.37,0.58,0.48,0.961c0.11,0.38,0.17,0.829,0.17,1.35c0.01,4.82,0.09,9.63,0.14,14.44
					c0.01,1.609,0.02,3.22,0.02,4.819c0,2.78,0,5.561,0,8.61c4-0.03,6,4.3,10.04,2.38c-0.3-1.22-0.52-2.33-0.65-3.33
					c-0.72-5.97,2.02-8.34,10.77-10.24c0.49-1.649,1.13-3.7-0.58-4.83c-0.09-0.06-0.19-0.12-0.28-0.149
					c-0.16-0.101-0.32-0.181-0.49-0.23c-0.08-0.04-0.17-0.069-0.25-0.09c-0.15-0.05-0.31-0.08-0.47-0.1
					c-1.35-0.21-2.76,0.37-3.87,1.56c-0.47,0.5-0.96,0.851-1.45,1.01c0,0,0,0.011-0.01,0c-0.36,0.101-0.73,0.091-1.1-0.04
					c-0.33-0.13-0.66-0.38-0.99-0.77c-0.17-0.2-0.3-0.39-0.4-0.59c-0.06-0.13-0.11-0.25-0.15-0.38c-0.29-1,0.22-1.98,1.06-2.74
					c2.78-2.55,5.99-3.39,9.67-2.17c2.09,0.689,3.26,1.96,3.86,3.58c0.06,0.16,0.11,0.33,0.16,0.5c0.06,0.189,0.11,0.39,0.14,0.59
					c0.07,0.31,0.12,0.63,0.16,0.96c0.04,0.37,0.06,0.75,0.07,1.15c0.03,1.17,0.05,2.34,0.07,3.5c0.03,1.489,0.06,2.979,0.07,4.47
					c0.05,2.479,0.08,4.95,0.13,7.439c0,0.061,0.02,0.141,0.05,0.221c0.08,0.25,0.26,0.55,0.43,0.55c1.39,0,2.88,0,4.74,0
					c-2.67-5-3.46-11.05-1.75-16.88c0.26-0.87,0.58-1.67,0.99-2.391c1.22-2.13,3.14-3.5,5.95-3.859c3.24-0.42,6.11,0.39,8.05,3.279
					c0.43,0.65,0.88,1.36,1.069,2.061c0.03,0.12,0.061,0.229,0.07,0.35c0.04,0.261,0.04,0.521-0.02,0.771
					c-0.011,0.08-0.03,0.149-0.061,0.229c-0.05,0.141-0.12,0.29-0.21,0.431c-0.01,0.01-0.01,0.02-0.01,0.02
					c-0.14,0.21-0.32,0.41-0.561,0.61c-0.93,0.779-1.649,0.779-2.279,0.39c-0.01-0.01-0.01-0.01-0.01-0.01
					c-0.21-0.141-0.42-0.311-0.61-0.51c-0.2-0.221-0.39-0.45-0.59-0.7c-0.14-0.19-0.28-0.38-0.43-0.58
					c-0.26-0.34-0.53-0.64-0.8-0.88c-0.14-0.141-0.27-0.25-0.41-0.351c-0.27-0.21-0.55-0.38-0.82-0.5c-1.22-0.54-2.44-0.3-3.39,0.69
					c-0.14,0.15-0.27,0.31-0.4,0.479c-0.31,0.44-0.58,0.971-0.79,1.601c-0.78,2.31-1.1,4.68-0.87,7.02
					c0.15,1.511,0.52,2.99,1.14,4.44c0.27,0.62,0.62,1.13,1.02,1.51c0.14,0.13,0.28,0.25,0.42,0.351c0.97,0.699,2.14,0.819,3.2,0.34
					c0.29-0.13,0.56-0.301,0.82-0.511c0.39-0.319,0.75-0.739,1.05-1.25c0.91-1.54,1.32-3.92,3.71-2.81
					c2.489,1.17,1.159,3.31,0.479,5.11c-0.19,0.5-0.39,1.01-0.59,1.529c1.27,0.88,2.46,0.221,3.81,0.48h0.011
					c0.02-0.11,0.05-0.22,0.069-0.32c0.08-0.31,0.16-0.59,0.23-0.859c0.069-0.261,0.13-0.511,0.149-0.761
					c0.011-0.08,0.021-0.16,0.021-0.239c0.04-8.23,0.06-16.46,0.08-24.69c0-0.58-0.01-1.16-0.01-1.74c0-0.68,0.01-1.359,0.05-2.029
					c0.069-1.021,0.109-2.15,0.67-2.851c0.06-0.07,0.12-0.14,0.189-0.2c0.36-0.34,0.891-0.529,1.681-0.489
					c0.64,0.029,1.09,0.229,1.41,0.529c0.13,0.12,0.229,0.25,0.329,0.41c0.4,0.68,0.45,1.62,0.46,2.5
					c0.04,3.44,0.021,6.88,0.021,10.311c0,0.47,0,0.939,0,1.409c0,0.301,0.02,0.591,0.04,0.91c0.04,0.53,0.09,1.141,0.15,1.931
					c2.609-1.841,3.97-4.101,5.68-6.021c0.1-0.11,0.189-0.21,0.3-0.31c0.1-0.11,0.2-0.21,0.31-0.311c0.101-0.1,0.211-0.2,0.311-0.29
					c0.97-0.819,2.05-1.18,3.33-0.04c0.21,0.19,0.38,0.38,0.5,0.57c0.08,0.13,0.14,0.25,0.18,0.37c0.23,0.64,0.03,1.26-0.31,1.87
					c-0.25,0.42-0.561,0.84-0.84,1.239c-4.881,6.87-4.931,6.891-0.36,14.19c1.05,1.68,1.72,3.73,3.54,4.92
					c0.439-0.39,0.71-0.81,0.86-1.22c0.329-0.891,0.18-1.811,0.109-2.68c-0.011-0.19-0.021-0.381-0.021-0.57
					c0.061-7.96-0.021-15.91,0.011-23.87c0-0.86-0.07-1.86,0.159-2.67c0.25-0.83,0.811-1.45,2.121-1.49
					c1.68-0.06,2.158,0.851,2.318,1.96c0.021,0.11,0.03,0.22,0.04,0.33c0,0.04,0.011,0.07,0.011,0.1
					c0.01,0.16,0.021,0.311,0.029,0.471c0,0.06,0,0.12,0,0.18c0.01,0.17,0.021,0.34,0.03,0.5c0,0.15,0.01,0.3,0.02,0.45
					c0.132,1.649-0.31,3.22,0.4,4.8c5.28,0.22,9.1,1.521,11.44,3.93c2.729,2.811,3.43,7.12,2.039,12.94
					c-0.181,0.729-0.381,1.49-0.619,2.27c-0.16,0.521-0.34,1.051-0.53,1.591c-0.28,0.81-0.601,1.649-0.95,2.51c2.2,0,4.3,0,6.82,0
					h0.01c-0.479-0.86-0.891-1.71-1.229-2.561c-0.172-0.43-0.32-0.85-0.461-1.279c0,0,0,0,0-0.011
					c-0.211-0.64-0.369-1.279-0.511-1.92c-0.649-3.08-0.55-6.18-0.04-9.37c0.311-1.96,0.932-3.579,1.79-4.85
					c1.75-2.51,4.5-3.58,7.88-3.03c3.61,0.591,6.342,3.83,6.98,7.721c0.16,1,0.18,2.029,0.05,3.08
					c-0.021,0.17-0.05,0.329-0.08,0.489c-0.03,0.17-0.069,0.33-0.12,0.48c-0.01,0.02-0.02,0.05-0.02,0.07
					c-0.062,0.189-0.141,0.359-0.221,0.529c-0.051,0.08-0.091,0.16-0.141,0.24c-0.52,0.8-1.38,1.19-2.68,1.16
					c-2.771-0.04-5.54,0-8.391,0v0.01c-0.949,2.47-0.24,4.38,0.989,6.08c0.24,0.33,0.5,0.6,0.771,0.8
					c0.189,0.141,0.371,0.25,0.569,0.33c0.62,0.271,1.302,0.25,1.95-0.06c0.352-0.17,0.7-0.41,1.04-0.74
					c1.36-1.32,2.392-3.68,4.681-2.271c0.09,0.061,0.18,0.12,0.26,0.181c0.149,0.13,0.279,0.25,0.391,0.37
					c1.17,1.42-0.859,3.159-0.75,4.81c1.91,0.33,3.8,0.34,5.71-0.03c-0.45-1.899-0.681-3.54-0.681-4.939
					c0-0.28,0.011-0.55,0.031-0.82c0,0,0,0,0-0.01c0.02-0.26,0.049-0.521,0.09-0.76c0-0.011,0-0.011,0-0.011
					c0.039-0.25,0.09-0.489,0.148-0.72c0,0,0,0,0-0.01c0.061-0.23,0.131-0.45,0.21-0.66c0-0.01,0-0.01,0-0.01
					c0.091-0.22,0.181-0.42,0.28-0.62c0-0.01,0-0.01,0-0.01c0.1-0.2,0.22-0.391,0.34-0.58v-0.01c0.25-0.37,0.54-0.721,0.88-1.04
					c0.171-0.16,0.351-0.311,0.54-0.471c0,0,0,0,0.012,0c0.188-0.149,0.39-0.29,0.608-0.43c0.21-0.14,0.44-0.27,0.681-0.4
					c0,0,0,0,0.01,0c0.229-0.13,0.479-0.25,0.75-0.369c0,0,0,0,0.011,0c0.26-0.12,0.54-0.23,0.83-0.341
					c0.29-0.109,0.59-0.22,0.909-0.319c0.311-0.101,0.641-0.19,0.979-0.29c0,0,0,0,0.011,0c0.34-0.09,0.689-0.181,1.061-0.271
					c1.4-0.33,2.84-0.43,3.01-2.26c0.11-1.14,0.062-2.43-0.91-3.08c-1.35-0.899-2.949-0.729-4.369,0.04
					c-0.369,0.2-0.681,0.51-0.99,0.82c-0.061,0.05-0.119,0.12-0.189,0.189c-0.13,0.12-0.26,0.23-0.398,0.34
					c-1.012,0.771-2.052,0.881-2.98-0.119c-0.3-0.33-0.52-0.67-0.641-1.021c-0.221-0.66-0.109-1.35,0.42-2.01
					c2.399-2.99,5.5-4.15,9.271-3.271c3.59,0.841,5.53,3.021,5.51,6.82c-0.01,1.19-0.01,2.37-0.01,3.561c-0.01,4.35,0,8.689,0,12.96
					h0.01c2.062,0.52,3.562,0.399,5.812-0.061c0-5.52-0.11-11.18,0.06-16.84c0.052-1.58-0.54-4.2,0.38-5.24
					c0.04-0.05,0.092-0.09,0.132-0.13c0.01-0.01,0.01-0.01,0.01-0.01c0.14-0.12,0.31-0.21,0.51-0.26c0.18-0.04,0.39-0.061,0.63-0.04
					c3.92,0.26,8.352-2.431,11.92,1.029c0.09,0.091,0.19,0.19,0.28,0.29c0.12,0.141,0.23,0.271,0.33,0.41
					c0.1,0.141,0.18,0.28,0.25,0.42c-0.01,0.01,0,0.01,0,0.01c0.03,0.07,0.06,0.15,0.09,0.221c0.1,0.319,0.13,0.64,0.08,0.97
					c-0.06,0.33-0.2,0.66-0.45,0.98c-0.62,0.819-1.51,0.92-2.62,0.64c-4.108-1.03-5.81-1.08-6.46,1.04
					c-0.3,0.97-0.39,2.399-0.38,4.42c0,0.56,0,1.12-0.01,1.67c-0.04,2.91-0.17,5.84,0.21,8.76c0.07,0.54,0.15,1.08,0.26,1.61
					c4.432,0,8.58,0,13.17,0c-0.95-3-2.14-6.1-2.22-9.4c-0.03-1.149,0-2.22,0.1-3.21c0.03-0.43,0.092-0.85,0.15-1.26
					c0.01-0.08,0.02-0.15,0.03-0.22c0.068-0.36,0.14-0.71,0.22-1.05c0.02-0.11,0.04-0.21,0.07-0.311
					c0.09-0.37,0.198-0.72,0.318-1.05c0.021-0.09,0.052-0.17,0.091-0.25c1.739-4.67,5.819-6.62,12.561-6.19
					c0.21-0.59,0.32-1.189,0.37-1.79c0.13-1.46-0.102-2.93,0.01-4.399c0.04-0.48,0.08-0.95,0.18-1.37c0.25-1.01,0.82-1.75,2.33-1.65
					c0.852,0.061,1.33,0.38,1.61,0.84c0.35,0.61,0.35,1.461,0.35,2.25c0.021,7.12,0.03,14.24-0.04,21.36
					c-0.04,4.05,0.45,7.94,1.42,11.94c3.48,14.26,3.382,28.72,1.592,43.229c-0.44,3.59-0.99,7.16-1.57,10.73
					c-0.58,3.569-1.18,7.13-1.73,10.7c-0.108,0.72-0.22,1.43-0.329,2.149c-0.319,2.15-0.609,4.3-0.859,6.45
					c-0.08,0.72-0.16,1.439-0.24,2.16c-0.08,0.72-0.148,1.438-0.21,2.16c-0.01,0.14-0.02,0.26-0.02,0.39
					c-0.021,0.57,0,1.099,0.09,1.61c0.01,0.108,0.028,0.229,0.06,0.34c0.17,0.819,0.49,1.59,0.96,2.39
					C414.029,246.407,421.119,252.548,432,253.268z M405.159,137.478c0.08-1.12,0.062-2.19-0.279-3.06
					c-0.399-1.03-1.229-1.78-2.841-1.99c-2.51-0.33-4.1,0.75-4.949,2.85c-0.101,0.26-0.199,0.54-0.279,0.84
					c-0.91,3.21-0.95,6.44,0.069,9.59c0.061,0.23,0.141,0.471,0.229,0.7c0.13,0.36,0.29,0.681,0.479,0.971c0,0.01,0,0.01,0.011,0.02
					c0.979,1.521,2.609,1.92,4.58,1.68c1.42-0.18,2.239-0.729,2.648-1.58c0.312-0.659,0.381-1.51,0.312-2.489
					c-0.102-1.391-0.021-3.07-0.021-4.07c0.011,0,0.021,0,0.03,0C405.149,139.938,405.079,138.588,405.159,137.478z
					 M402.609,187.408c0.17-2.239-0.25-4.979-1.17-7.64c-1.28-3.73-3.7-6.15-7.82-6.47c-4.46-0.341-7.59,1.68-9.22,5.699
					c-2.479,6.091-2.38,12.311,0.351,18.261c0.489,1.069,1.13,1.979,1.869,2.72c0.301,0.3,0.61,0.57,0.94,0.81
					c0.33,0.24,0.67,0.46,1.02,0.65c1.86,1,4.021,1.25,6.062,0.74c1.029-0.25,2.02-0.7,2.938-1.34c0,0,0,0,0.011,0
					c0.46-0.32,0.899-0.69,1.301-1.11c0.279-0.28,0.539-0.58,0.789-0.89c0.12-0.16,0.24-0.33,0.359-0.5
					C402.18,195.198,402.68,191.668,402.609,187.408z M379.039,178.388c0.19-1.03-0.67-1.86-1.46-2.601
					c-1.909-1.8-4.22-2.64-6.25-2.6c-4.829-0.13-8.438,2.16-9.438,5.6c-0.791,2.71-0.17,5.28,1.709,7.29
					c0.811,0.87,1.851,1.641,3.101,2.271c1.86,0.939,3.83,1.63,5.7,2.55c1.91,0.94,2.5,2.56,1.88,4.55
					c-0.609,1.99-2.34,2.221-4.04,2.25c-2.239,0.04-3.89-1.3-5.52-2.64c-0.5-0.41-1.021-0.62-1.53-0.62c-0.13,0-0.25,0.01-0.38,0.04
					c-0.12,0.02-0.25,0.06-0.37,0.11h-0.011c-0.09,0.04-0.189,0.09-0.279,0.149c-0.08,0.03-0.148,0.08-0.221,0.13
					c-0.039,0.03-0.08,0.061-0.119,0.09c-0.04,0.021-0.09,0.051-0.131,0.091c-0.069,0.05-0.119,0.109-0.17,0.17
					c-0.369,0.359-0.51,0.76-0.51,1.18c0,0.21,0.029,0.42,0.1,0.63c0,0-0.01,0,0,0.01c0.061,0.21,0.141,0.431,0.24,0.65
					c0.17,0.36,0.42,0.71,0.75,1.06c0.069,0.07,0.141,0.15,0.211,0.21c0.42,0.421,0.93,0.811,1.5,1.181
					c0.949,0.62,2.079,1.149,3.229,1.529c0.11,0.051,0.229,0.08,0.34,0.11c0.46,0.14,0.92,0.26,1.37,0.34
					c0.86,0.16,1.69,0.21,2.42,0.12c0.74-0.1,1.44-0.24,2.101-0.43c0.221-0.061,0.431-0.13,0.641-0.21
					c0.63-0.22,1.22-0.5,1.76-0.851c1.61-1.02,2.761-2.609,3.25-4.939c0.87-4.141-0.989-7.05-4.489-8.97
					c-1.949-1.07-4.101-1.761-6.091-2.74c-1.479-0.73-2.39-1.891-2.02-3.71c0.359-1.8,1.72-2.48,3.279-2.761
					c2.051-0.369,3.819,0.37,5.351,1.761c1.07,0.97,2.22,1.27,3.229,0.39c0.141-0.12,0.271-0.26,0.399-0.43
					C378.84,179.008,378.989,178.688,379.039,178.388z M361.909,148.958c4.011-1.05,2.53-4.029,2.351-6.819
					c-3.26,0.18-6.351,0.28-6.471,4.27C357.719,149.078,359.84,149.498,361.909,148.958z M356.369,195.508
					c0.7-3.66-1.34-7.051-5.279-9c-1.869-0.92-3.82-1.681-5.699-2.57c-1.24-0.59-1.891-1.6-1.75-3.03c0.09-0.97,0.43-1.68,1.05-2.22
					c0.12-0.11,0.26-0.21,0.399-0.31c0.291-0.181,0.62-0.341,0.989-0.48c2.44-0.92,4.382,0.021,6.132,1.49
					c1.299,1.08,2.568,1.3,3.629,0.02c1.069-1.29,0.279-2.399-0.641-3.34c-0.08-0.09-0.17-0.18-0.26-0.26v-0.01
					c-0.59-0.58-1.221-1.04-1.9-1.41c-0.939-0.521-1.96-0.86-3.039-1.04c-0.619-0.101-1.261-0.15-1.91-0.16
					c-0.959-0.03-1.869,0.05-2.721,0.23c-3.141,0.67-5.408,2.739-6.21,5.779c-0.989,3.82,0.899,7.24,5.222,9.311
					c1.629,0.779,3.31,1.46,4.959,2.189c2.069,0.92,3.029,2.5,2.311,4.7c-0.689,2.08-2.52,2.38-4.43,2.31
					c-0.131-0.01-0.26-0.02-0.381-0.029c-0.379-0.05-0.74-0.13-1.08-0.24c-1.379-0.45-2.51-1.4-3.681-2.28
					c-0.198-0.149-0.409-0.3-0.618-0.41c-0.23-0.13-0.461-0.229-0.69-0.279c-0.13-0.03-0.25-0.05-0.38-0.05
					c-0.11-0.011-0.221,0-0.33,0.029c-0.211,0.05-0.42,0.141-0.641,0.29c-0.101,0.07-0.209,0.16-0.32,0.271v0.01
					c-0.93,0.93-0.889,1.92-0.26,3.02c0.489,0.841,1.41,1.65,2.551,2.33c0.39,0.23,0.789,0.44,1.209,0.63
					c0.211,0.101,0.431,0.19,0.65,0.28c0.43,0.17,0.881,0.33,1.329,0.46c1.632,0.48,3.302,0.67,4.671,0.42
					C353.02,201.458,355.609,199.378,356.369,195.508z M344.909,137.248c-0.229-2.619-0.608-5.029-3.55-4.909
					c-2.859,0.119-3.141,2.47-3.27,5.05C340.399,137.828,342.489,138.088,344.909,137.248z M333.729,186.758
					c1.64-4.221-1.62-11.45-5.9-12.98c-3.479-1.229-6.938-0.37-9.239,2.15c-0.16,0.17-0.32,0.359-0.471,0.55
					c-0.439,0.58-0.83,1.22-1.148,1.94c-0.221,0.47-0.41,0.979-0.562,1.51c-1.601,5.479-1.448,11.06,0.431,16.47
					c1.08,3.09,3.239,5.3,6.631,5.65c3.369,0.359,6.318-0.681,8.42-3.54c0.699-0.95,1.51-1.99,1.39-3.03
					c-0.01-0.13-0.04-0.26-0.09-0.39c-0.011,0,0-0.011,0-0.011c-0.091-0.26-0.261-0.529-0.521-0.779
					c-0.061-0.08-0.119-0.141-0.189-0.2h-0.01c-1.871-1.67-2.86,0.17-3.971,1.439c-2.859,3.28-5.921,2.771-7.66-1.26
					c-0.721-1.66-1.271-3.39-0.439-5.359c1.43-0.37,2.88-0.461,4.33-0.461c1.06,0,2.119,0.051,3.189,0.07
					c0.08,0.01,0.159,0.01,0.239,0.01c0.722,0.021,1.431,0.03,2.149,0c0.091,0,0.181-0.01,0.271-0.02c0.181,0,0.351-0.01,0.521-0.03
					c0.171-0.01,0.33-0.03,0.49-0.06c0.01,0,0.029,0,0.041,0c0.158-0.03,0.31-0.061,0.448-0.11c0.312-0.09,0.601-0.22,0.86-0.43
					c0.061-0.05,0.13-0.11,0.18-0.17C333.369,187.478,333.569,187.168,333.729,186.758z M325.939,143.638
					c0.22-1.08,0.189-2.22,0.3-3.62c-0.149-1.1-0.21-2.51-0.569-3.84c-0.721-2.69-2.67-3.94-5.341-3.61
					c-2.68,0.33-3.649,2.12-3.42,4.78c0.17,1.939,0.091,3.899,0.08,5.85c-0.029,2.71-0.319,5.55,3.642,5.71
					C324.289,149.048,325.369,146.568,325.939,143.638z M311.409,178.008c0.49-1.15,0.091-2.19-0.87-2.971
					c-2.239-1.819-4.76-2.08-7.46-1.279c-1.14,0.34-2.09,1.25-3.51,0.46c-3.12-1.74-3.62,0.42-3.67,2.79
					c-0.08,3.609-0.02,7.22-0.02,10.84c0,3.609-0.011,7.229,0,10.84c0.01,1.55-0.08,3.37,2.08,3.39c2.06,0.021,2.27-1.68,2.27-3.3
					c0.021-4.439,0.01-8.89,0.04-13.34c0.05-7.14,1.61-8.37,8.32-6.54C309.779,179.228,310.849,179.288,311.409,178.008z
					 M304.439,150.998c-1.53-2.93-2.74-5.859-5.66-8.25c-0.75,3.021-0.52,5.54-0.3,8.36
					C300.67,151.428,302.399,151.658,304.439,150.998z M288.449,194.098c1.2-4.38,1.2-8.87,0.23-13.25
					c-1.34-6.03-6.33-8.83-12.39-7.25c-0.92,0.24-1.79,1.02-2.77,0.57c-3.29-1.521-4.17,0.71-4.21,3.06
					c-0.17,10.85-0.12,21.71-0.13,32.56c0,1.69,0.67,3.28,2.5,3.21c1.56-0.06,2.02-1.529,2.11-3.1c0.17-2.74-0.44-5.53,0.34-8.24
					C283.019,202.618,286.639,200.738,288.449,194.098z M265.669,193.438c0.07-2.2-1.12-4.6-3.82-6.07c-2.07-1.13-4.27-2-6.39-3.05
					c-1.56-0.77-2.94-1.82-2.61-3.64c0.04-0.181,0.09-0.37,0.16-0.57c0.08-0.24,0.18-0.46,0.28-0.66c0.11-0.2,0.22-0.38,0.35-0.55
					c1.02-1.33,2.67-1.57,4.49-1.26c1.56,0.27,2.74,1.28,3.98,2.18c0.2,0.15,0.39,0.26,0.59,0.34c0.57,0.24,1.13,0.24,1.65-0.02
					c0.19-0.101,0.38-0.24,0.56-0.42c0.06-0.061,0.12-0.12,0.18-0.19c0.69-0.82,0.69-1.84,0.02-2.71c-2.49-3.2-5.92-4.01-9.71-3.56
					c-3.93,0.46-6.35,2.85-7.04,6.659c-0.65,3.561,1.11,6.23,4.12,7.971c1.91,1.109,4.01,1.92,6.06,2.779
					c2.13,0.9,3.02,2.341,2.35,4.62c-0.08,0.261-0.17,0.49-0.27,0.7c-0.11,0.21-0.23,0.391-0.36,0.55
					c-0.07,0.08-0.14,0.15-0.21,0.221c-0.88,0.85-2.19,0.93-3.5,0.899c-2.06-0.029-3.65-1.2-5.14-2.51
					c-0.95-0.84-2.02-1.03-3.02-0.19c-0.06,0.051-0.11,0.101-0.16,0.16c-0.16,0.15-0.28,0.33-0.36,0.511
					c-0.19,0.42-0.2,0.88-0.08,1.369c0.05,0.21,0.11,0.42,0.2,0.631c0.23,0.55,0.63,1.09,1.15,1.579c2.21,2.11,6.59,3.54,9.81,2.921
					C263.099,201.328,265.649,198.358,265.669,193.438z M262.28,149.118c4.76-0.439,2.9-3.989,3.37-7.1
					c-3.44,0.439-6.66,0.32-6.74,4.49C258.869,148.698,260.379,149.288,262.28,149.118z M243.53,199.968
					c0.07-1.84-1.35-2.23-2.85-2.24c-3.04-0.021-6.07,0-9.77,0c0-3.37,0.17-6.01-0.04-8.63c-0.21-2.57-0.13-4.79,1.21-5.91
					c0.2-0.17,0.43-0.31,0.69-0.43c0.26-0.11,0.55-0.2,0.87-0.271c0.78-0.149,1.75-0.13,2.95,0.09c1.19,0.21,2.27-0.47,2.34-1.819
					c0.07-1.471-0.77-2.24-2.29-2.38c-1.76-0.15-3.61,0.5-5.65-0.711c0.07-3.81-0.45-7.76,0.33-12.06c3.07,0,5.96,0.021,8.86-0.01
					c0.31,0,0.61-0.021,0.9-0.061c0.39-0.05,0.76-0.14,1.09-0.279c0.16-0.07,0.32-0.16,0.45-0.261c0.08-0.05,0.14-0.109,0.2-0.17
					c0.38-0.359,0.61-0.89,0.59-1.64c-0.03-1.72-1.59-2.13-3.06-2.15c-3.48-0.06-6.96-0.01-10.44-0.05
					c-0.63-0.01-1.16,0.061-1.6,0.22c-0.19,0.061-0.36,0.141-0.52,0.23c-0.21,0.12-0.39,0.26-0.54,0.43
					c-0.14,0.141-0.26,0.311-0.36,0.5c-0.31,0.57-0.44,1.311-0.44,2.221c0.04,11.279,0.02,22.56-0.03,33.85
					c-0.01,2.2,0.81,3.46,3.11,3.479c3.76,0.021,7.52,0.051,11.28,0.021C242.149,201.938,243.459,201.538,243.53,199.968z
					 M219.599,148.738c5.01-0.76,6.77-2.74,6.18-6.85c-0.48-3.351-2.01-5.7-6.12-5.15
					C219.189,140.738,219.359,144.598,219.599,148.738z M224.969,127.538c0.36-3.26-1.26-5.199-5.36-5.31
					c-0.25,3.16-0.44,6.01,0.1,9.09C222.899,131.908,224.649,130.388,224.969,127.538z"/>
				<path d="M415.069,268.897c0.391,0.45,0.79,0.9,1.22,1.35C415.859,269.798,415.46,269.348,415.069,268.897z"/>
				<path d="M411.06,209.138c-0.57,3.569-1.181,7.13-1.73,10.7C409.88,216.268,410.479,212.708,411.06,209.138z"/>
				<path d="M407.189,246.668c0.62,7.39,1.97,14.1,6.271,20.158C409.149,260.768,407.8,254.058,407.189,246.668z"/>
				<path d="M409,221.988c-0.311,2.141-0.609,4.29-0.859,6.45C408.39,226.288,408.68,224.138,409,221.988z"/>
				<path fill="#FFFFFF" d="M408.079,266.777l-1.148,1.54c0.239,3.562,0.688,6.74-2.4,7.67c-2.149,0.65-3.649-0.26-4.859-1.64
					c-0.199-0.23-0.399-0.48-0.601-0.74c-0.189-0.26-0.38-0.52-0.561-0.79c-0.279-0.41-0.539-0.81-0.8-1.21
					c-1.811-2.78-1.921-5.56-1.54-8.46c0.061-0.41,0.13-0.84,0.199-1.26v-0.01c0.08-0.422,0.16-0.842,0.24-1.271v-0.01
					c0.17-0.86,0.351-1.73,0.51-2.61c0.16-0.89,0.312-1.8,0.41-2.72c3.141,3.59,5.03,7.3,8.28,9.7
					C406.579,265.537,407.319,266.157,408.079,266.777z"/>
				<path d="M407.699,118.768c0.851,0.06,1.33,0.39,1.61,0.86c-0.28-0.46-0.761-0.78-1.61-0.841c-1.51-0.1-2.08,0.641-2.33,1.65
					C405.609,119.408,406.17,118.668,407.699,118.768z"/>
				<path d="M407.899,230.598c-0.07,0.72-0.141,1.438-0.2,2.16c-0.01,0.13-0.02,0.26-0.029,0.39c0-0.13,0.011-0.25,0.021-0.39
					C407.75,232.038,407.819,231.318,407.899,230.598z"/>
				<path d="M407.76,234.758c0.011,0.12,0.029,0.229,0.061,0.34C407.789,234.987,407.77,234.867,407.76,234.758z"/>
				<path d="M405.81,264.968c0.77,0.568,1.51,1.188,2.27,1.81C407.319,266.157,406.579,265.537,405.81,264.968z"/>
				<path d="M404.81,127.928c0.21-0.57,0.31-1.141,0.37-1.721c-0.051,0.601-0.16,1.2-0.37,1.79c-6.74-0.43-10.82,1.521-12.561,6.19
					C393.979,129.488,398.069,127.498,404.81,127.928z"/>
				<path d="M399.069,273.607c0.2,0.26,0.399,0.51,0.601,0.74C399.46,274.117,399.26,273.867,399.069,273.607z"/>
				<path d="M398.51,272.817c0.181,0.271,0.37,0.53,0.561,0.79C398.869,273.348,398.689,273.088,398.51,272.817z"/>
				<path d="M397.119,257.987c-0.159,0.88-0.34,1.75-0.51,2.61C396.77,259.747,396.949,258.878,397.119,257.987z"/>
				<path d="M396.609,260.607c-0.08,0.43-0.16,0.85-0.24,1.271C396.439,261.457,396.52,261.037,396.609,260.607z"/>
				<path d="M396.369,261.888c-0.069,0.42-0.14,0.85-0.199,1.26C396.229,262.728,396.289,262.308,396.369,261.888z"/>
				<path d="M389.319,132.798c0.25-0.32,0.391-0.65,0.45-0.98c-0.05,0.34-0.19,0.68-0.45,1.01c-0.62,0.82-1.51,0.95-2.609,0.67
					c-4.109-1.02-5.811-1.1-6.471,0.98c0.65-2.12,2.351-2.07,6.46-1.04C387.81,133.718,388.699,133.618,389.319,132.798z"/>
				<path d="M379.85,140.568c-0.04,2.92-0.17,5.851,0.21,8.76C379.68,146.408,379.81,143.478,379.85,140.568z"/>
				<path d="M369.279,138.088c0,4.35,0.01,8.689,0.01,12.96h-0.01C369.279,146.778,369.27,142.438,369.279,138.088z"/>
				<path d="M368.789,289.978c-0.239,0.24-0.479,0.54-0.729,0.88c-0.141,0.19-0.271,0.38-0.41,0.57c0.13-0.19,0.26-0.38,0.399-0.57
					C368.3,290.508,368.55,290.218,368.789,289.978z"/>
				<path d="M367.029,307.018c0.32,0.55,0.681,1.12,1.061,1.71C367.699,308.138,367.35,307.567,367.029,307.018z"/>
				<path d="M366.17,305.388c0.25,0.53,0.54,1.068,0.859,1.63C366.71,306.457,366.42,305.918,366.17,305.388z"/>
				<path d="M365.029,302.348c0.13,0.49,0.29,0.979,0.471,1.49C365.31,303.327,365.159,302.838,365.029,302.348z"/>
				<path d="M358.301,133.598c-0.07,0.06-0.131,0.13-0.19,0.189C358.18,133.718,358.239,133.648,358.301,133.598z"/>
				<path d="M352.92,313.607c-0.131,0.79-0.271,1.57-0.439,2.35C352.639,315.178,352.789,314.397,352.92,313.607z"/>
				<path d="M351.93,318.237c-0.4,1.5-0.871,2.96-1.42,4.38C351.051,321.197,351.529,319.737,351.93,318.237z"/>
				<path d="M348.51,146.018c0.16,0.12,0.291,0.24,0.391,0.37C348.789,146.268,348.659,146.148,348.51,146.018z"/>
				<path d="M349.639,324.728c-0.92,2.08-2,4.07-3.239,5.99C347.631,328.798,348.711,326.808,349.639,324.728z"/>
				<path d="M342.869,127.858c3.62,0.6,6.359,3.87,6.98,7.78c-0.641-3.891-3.37-7.13-6.98-7.72c-3.38-0.551-6.13,0.52-7.88,3.029
					C336.729,128.408,339.479,127.308,342.869,127.858z"/>
				<path d="M340.579,148.908c0.62,0.261,1.29,0.24,1.95-0.06C341.881,149.158,341.199,149.178,340.579,148.908z"/>
				<path d="M340.01,148.578c0.189,0.141,0.371,0.25,0.569,0.33C340.381,148.828,340.199,148.718,340.01,148.578z"/>
				<path d="M328.67,131.628c2.739,2.8,3.439,7.109,2.041,12.939C332.1,138.748,331.399,134.438,328.67,131.628z"/>
				<path d="M330.711,144.568c-0.172,0.73-0.382,1.49-0.621,2.271C330.329,146.058,330.529,145.298,330.711,144.568z"/>
				<path d="M330.09,146.838c-0.16,0.52-0.34,1.05-0.529,1.59C329.75,147.888,329.93,147.358,330.09,146.838z"/>
				<path d="M316.779,121.948c0.01,0.16,0.021,0.33,0.029,0.5C316.801,122.288,316.789,122.118,316.779,121.948z"/>
				<path d="M316.75,121.298c0.01,0.159,0.02,0.31,0.029,0.47C316.77,121.608,316.76,121.458,316.75,121.298z"/>
				<path d="M308.8,131.058c0.34-0.61,0.54-1.23,0.31-1.87C309.349,129.818,309.149,130.448,308.8,131.058z"/>
				<path d="M308.929,128.818c0.08,0.12,0.14,0.25,0.18,0.37C309.069,129.068,309.01,128.948,308.929,128.818z"/>
				<path d="M308.8,131.058c-0.24,0.42-0.561,0.84-0.84,1.24C308.239,131.898,308.55,131.478,308.8,131.058z"/>
				<path d="M305.099,128.288c-0.1,0.091-0.21,0.19-0.311,0.29C304.889,128.468,305,128.378,305.099,128.288z"/>
				<path d="M304.789,128.578c-0.109,0.101-0.21,0.2-0.31,0.311C304.569,128.778,304.679,128.668,304.789,128.578z"/>
				<path d="M298.319,132.378c0,0.3,0.01,0.59,0.03,0.909c-0.021-0.319-0.04-0.609-0.04-0.909c0-0.471,0-0.94,0-1.41
					C298.319,131.438,298.319,131.908,298.319,132.378z"/>
				<path d="M297.5,117.748c0.13,0.12,0.239,0.25,0.329,0.41C297.729,117.998,297.63,117.868,297.5,117.748z"/>
				<path d="M290.079,133.148c0.04,0.12,0.061,0.23,0.07,0.35C290.139,133.378,290.109,133.268,290.079,133.148z"/>
				<path d="M289.01,131.048c0.45,0.659,0.89,1.38,1.069,2.1c-0.189-0.7-0.64-1.41-1.069-2.06c-1.94-2.891-4.81-3.7-8.05-3.28
					c-2.81,0.36-4.73,1.729-5.95,3.86c1.21-2.15,3.14-3.57,5.96-3.931C284.199,127.318,287.069,128.168,289.01,131.048z"/>
				<path d="M287.939,323.058c0.23,0.33,0.35,0.63,0.4,0.91C288.289,323.688,288.159,323.388,287.939,323.058z"/>
				<path d="M283.669,148.848c0.29-0.13,0.56-0.3,0.82-0.51C284.229,148.548,283.959,148.718,283.669,148.848z"/>
				<path d="M280.469,148.508c0.97,0.689,2.15,0.81,3.2,0.34C282.609,149.328,281.439,149.208,280.469,148.508z"/>
				<path d="M279.949,133.108c-0.14,0.15-0.27,0.311-0.4,0.48C279.679,133.418,279.809,133.258,279.949,133.108z"/>
				<path d="M279.039,146.648c0.27,0.62,0.61,1.12,1.01,1.51c-0.4-0.38-0.75-0.89-1.02-1.51c-0.62-1.45-0.99-2.93-1.14-4.44
					C278.039,143.708,278.419,145.198,279.039,146.648z"/>
				<path d="M270.559,150.168c0,0.06,0.02,0.14,0.04,0.22c-0.03-0.08-0.05-0.16-0.05-0.22c-0.05-2.49-0.08-4.961-0.13-7.44
					C270.469,145.198,270.51,147.668,270.559,150.168z"/>
				<path d="M270.349,138.258c-0.02-1.16-0.04-2.33-0.07-3.5c-0.01-0.4-0.03-0.78-0.07-1.15c0.05,0.39,0.07,0.8,0.08,1.21
					C270.309,135.968,270.339,137.118,270.349,138.258z"/>
				<path d="M270.049,132.648c0.08,0.31,0.13,0.63,0.16,0.96C270.169,133.278,270.119,132.958,270.049,132.648z"/>
				<path d="M263.719,284.478c0.09,0.54,0.18,1.09-0.08,1.63C263.899,285.567,263.809,285.018,263.719,284.478z"/>
				<path d="M263.599,132.198c-0.16-0.05-0.32-0.08-0.47-0.1C263.289,132.118,263.449,132.148,263.599,132.198z"/>
				<path d="M263.129,132.098c-1.34-0.2-2.74,0.38-3.85,1.56c-0.47,0.5-0.97,0.86-1.47,1.011c0.49-0.16,0.98-0.511,1.45-1.011
					C260.369,132.468,261.78,131.888,263.129,132.098z"/>
				<path d="M257.799,134.668c-0.36,0.109-0.73,0.1-1.1-0.04C257.069,134.758,257.439,134.768,257.799,134.668z"/>
				<path d="M244.889,120.818c0.01,4.82,0.09,9.63,0.13,14.44c-0.05-4.811-0.13-9.62-0.14-14.44c0-0.52-0.06-0.97-0.17-1.35
					C244.829,119.848,244.889,120.298,244.889,120.818z"/>
				<path d="M243.419,272.777c0.15,0.22,0.29,0.44,0.44,0.66C243.709,273.218,243.559,272.997,243.419,272.777z"/>
				<path d="M242.28,270.707c0.11,0.23,0.22,0.472,0.34,0.7C242.499,271.178,242.389,270.947,242.28,270.707z"/>
				<path d="M239.699,278.987c0.59,0.62,1.26,1.312,2.01,2.062C240.959,280.298,240.289,279.607,239.699,278.987z"/>
				<path d="M239.979,122.228c-0.02-0.021-0.05-0.05-0.08-0.08C239.929,122.168,239.959,122.198,239.979,122.228z"/>
				<path d="M239.899,122.148c-0.02-0.03-0.05-0.05-0.08-0.08C239.849,122.088,239.879,122.108,239.899,122.148z"/>
				<path d="M239.439,121.818c0.08,0.04,0.19,0.09,0.28,0.17c-0.1-0.069-0.21-0.13-0.3-0.17c-0.08-0.04-0.17-0.07-0.26-0.1
					C239.26,121.748,239.349,121.778,239.439,121.818z"/>
				<path d="M237.719,276.747c0.54,0.672,1.2,1.4,1.98,2.24C238.909,278.147,238.26,277.418,237.719,276.747z"/>
				<path d="M236.99,275.787c0.22,0.312,0.46,0.62,0.73,0.96C237.449,276.407,237.199,276.098,236.99,275.787z"/>
				<path d="M237.01,121.438c0.29,0.05,0.61,0.07,0.93,0.1C237.619,121.518,237.299,121.498,237.01,121.438z"/>
				<path d="M236.409,274.918c0.17,0.278,0.37,0.568,0.58,0.868C236.769,275.487,236.579,275.197,236.409,274.918z"/>
				<path d="M237.699,117.458c-1.1,0.141-2,0.601-2.11,2.181c-0.08,1.12,0.42,1.55,1.11,1.74c-0.7-0.19-1.2-0.61-1.13-1.74
					C235.679,118.048,236.589,117.588,237.699,117.458z"/>
				<path d="M209.999,270.638c-0.48,0.2-0.98,0.38-1.49,0.55v-0.01C209.019,271.018,209.51,270.827,209.999,270.638z"/>
			</g>
			<g>
			</g>
		</g>
	</g>
</g>
</svg>
